<svg viewBox="0 0 24 24" fill="none" xmlns="http://www.w3.org/2000/svg" id="Shield-Keyhole--Streamline-Solar-Ar" height="24" width="24">
    <desc>
        Shield Keyhole Streamline Icon: https://streamlinehq.com
    </desc>
    <path d="M3 10.4167c0 -3.19763 0 -4.79642 0.37752 -5.33429 0.37751 -0.53787 1.8808 -1.05245 4.88739 -2.08162l0.57281 -0.19607C10.405 2.26824 11.1886 2 12 2c0.8114 0 1.595 0.26824 3.1623 0.80472l0.5728 0.19607c3.0066 1.02917 4.5099 1.54375 4.8874 2.08162C21 5.62028 21 7.21907 21 10.4167l0 1.5747c0 5.638 -4.239 8.3741 -6.8986 9.5359C13.38 21.8424 13.0193 22 12 22c-1.0193 0 -1.38 -0.1576 -2.10144 -0.4727C7.23896 20.3655 3 17.6294 3 11.9914l0 -1.5747Z" stroke="#000000" stroke-width="1.5"></path>
    <path d="M11.5 16h1c0.5523 0 1 -0.4477 1 -1v-1.4013C14.3967 13.0799 15 12.1104 15 11c0 -1.65685 -1.3431 -3 -3 -3s-3 1.34315 -3 3c0 1.1104 0.6033 2.0799 1.5 2.5987V15c0 0.5523 0.4477 1 1 1Z" stroke="#000000" stroke-linejoin="round" stroke-width="1.5"></path>
</svg>