<svg viewBox="0 0 24 24" fill="none" xmlns="http://www.w3.org/2000/svg" id="Medal-Ribbon--Streamline-Solar-Ar" height="24" width="24">
    <desc>
        Medal Ribbon Streamline Icon: https://streamlinehq.com
    </desc>
    <path stroke="#000000" d="M5 9a7 7 0 1 0 14 0A7 7 0 1 0 5 9" stroke-width="1.5"></path>
    <path d="m7.35111 15 -0.63687 2.323c-0.62834 2.2918 -0.94251 3.4377 -0.52327 4.0651 0.14693 0.2198 0.34403 0.3963 0.57275 0.5127 0.65263 0.3323 1.66029 -0.1927 3.67558 -1.2428 0.6706 -0.3494 1.0059 -0.5241 1.3621 -0.5621 0.1321 -0.0141 0.2651 -0.0141 0.3972 0 0.3562 0.038 0.6915 0.2127 1.3621 0.5621 2.0153 1.0501 3.023 1.5751 3.6756 1.2428 0.2287 -0.1164 0.4258 -0.2929 0.5727 -0.5127 0.4193 -0.6274 0.1051 -1.7733 -0.5232 -4.0651L16.6489 15" stroke="#000000" stroke-linecap="round" stroke-width="1.5"></path>
</svg>